<svg xmlns="http://www.w3.org/2000/svg" xmlns:xlink="http://www.w3.org/1999/xlink" width="500" zoomAndPan="magnify" viewBox="0 0 375 374.999991" height="500" preserveAspectRatio="xMidYMid meet" version="1.0"><defs><clipPath id="ccaafd81c5"><path d="M 1.863281 1.863281 L 373.113281 1.863281 L 373.113281 373.113281 L 1.863281 373.113281 Z M 1.863281 1.863281 " clip-rule="nonzero"/></clipPath><clipPath id="6e9e02c32b"><path d="M 158 39.140625 L 217 39.140625 L 217 95 L 158 95 Z M 158 39.140625 " clip-rule="nonzero"/></clipPath></defs><g clip-path="url(#ccaafd81c5)"><path fill="#990202" d="M 373.113281 187.488281 C 373.113281 190.523438 373.039062 193.5625 372.886719 196.59375 C 372.738281 199.628906 372.515625 202.660156 372.21875 205.683594 C 371.921875 208.703125 371.550781 211.71875 371.101562 214.722656 C 370.65625 217.730469 370.136719 220.722656 369.546875 223.699219 C 368.953125 226.679688 368.289062 229.644531 367.550781 232.589844 C 366.8125 235.539062 366 238.464844 365.121094 241.371094 C 364.238281 244.277344 363.285156 247.164062 362.261719 250.023438 C 361.238281 252.882812 360.144531 255.714844 358.980469 258.523438 C 357.820312 261.328125 356.589844 264.105469 355.289062 266.851562 C 353.992188 269.597656 352.625 272.3125 351.195312 274.992188 C 349.761719 277.667969 348.265625 280.3125 346.703125 282.917969 C 345.140625 285.523438 343.515625 288.089844 341.828125 290.613281 C 340.140625 293.140625 338.390625 295.625 336.582031 298.0625 C 334.773438 300.503906 332.90625 302.898438 330.976562 305.246094 C 329.050781 307.59375 327.066406 309.894531 325.027344 312.144531 C 322.984375 314.394531 320.890625 316.597656 318.742188 318.742188 C 316.597656 320.890625 314.394531 322.984375 312.144531 325.027344 C 309.894531 327.066406 307.59375 329.050781 305.246094 330.976562 C 302.898438 332.90625 300.503906 334.773438 298.0625 336.582031 C 295.625 338.390625 293.140625 340.140625 290.613281 341.828125 C 288.089844 343.515625 285.523438 345.140625 282.917969 346.703125 C 280.3125 348.265625 277.667969 349.761719 274.992188 351.195312 C 272.3125 352.625 269.597656 353.992188 266.851562 355.289062 C 264.105469 356.589844 261.328125 357.820312 258.523438 358.980469 C 255.714844 360.144531 252.882812 361.238281 250.023438 362.261719 C 247.160156 363.285156 244.277344 364.238281 241.371094 365.121094 C 238.464844 366 235.539062 366.8125 232.589844 367.550781 C 229.644531 368.289062 226.679688 368.953125 223.699219 369.546875 C 220.722656 370.136719 217.730469 370.65625 214.722656 371.101562 C 211.71875 371.550781 208.703125 371.921875 205.683594 372.21875 C 202.660156 372.515625 199.628906 372.738281 196.59375 372.886719 C 193.5625 373.039062 190.523438 373.113281 187.488281 373.113281 C 184.449219 373.113281 181.414062 373.039062 178.378906 372.890625 C 175.34375 372.738281 172.316406 372.515625 169.292969 372.21875 C 166.269531 371.921875 163.253906 371.550781 160.25 371.101562 C 157.246094 370.65625 154.253906 370.136719 151.273438 369.546875 C 148.292969 368.953125 145.332031 368.289062 142.382812 367.550781 C 139.4375 366.8125 136.511719 366 133.601562 365.121094 C 130.695312 364.238281 127.8125 363.285156 124.953125 362.261719 C 122.089844 361.238281 119.257812 360.144531 116.453125 358.980469 C 113.644531 357.820312 110.867188 356.589844 108.121094 355.289062 C 105.375 353.992188 102.664062 352.625 99.984375 351.195312 C 97.304688 349.761719 94.664062 348.265625 92.058594 346.703125 C 89.453125 345.140625 86.886719 343.515625 84.359375 341.828125 C 81.832031 340.140625 79.351562 338.390625 76.910156 336.582031 C 74.46875 334.773438 72.078125 332.90625 69.726562 330.976562 C 67.378906 329.050781 65.078125 327.066406 62.828125 325.027344 C 60.578125 322.984375 58.378906 320.890625 56.230469 318.742188 C 54.082031 316.597656 51.988281 314.394531 49.949219 312.144531 C 47.90625 309.894531 45.925781 307.59375 43.996094 305.246094 C 42.070312 302.898438 40.203125 300.503906 38.390625 298.0625 C 36.582031 295.625 34.832031 293.140625 33.144531 290.613281 C 31.457031 288.089844 29.832031 285.523438 28.269531 282.917969 C 26.710938 280.3125 25.210938 277.667969 23.78125 274.992188 C 22.347656 272.3125 20.984375 269.597656 19.683594 266.851562 C 18.386719 264.105469 17.15625 261.328125 15.992188 258.523438 C 14.828125 255.714844 13.738281 252.882812 12.714844 250.023438 C 11.691406 247.160156 10.738281 244.277344 9.855469 241.371094 C 8.972656 238.464844 8.164062 235.539062 7.425781 232.589844 C 6.6875 229.644531 6.023438 226.679688 5.429688 223.699219 C 4.835938 220.722656 4.316406 217.730469 3.871094 214.722656 C 3.425781 211.71875 3.054688 208.703125 2.757812 205.683594 C 2.457031 202.660156 2.234375 199.628906 2.085938 196.59375 C 1.9375 193.5625 1.863281 190.523438 1.863281 187.488281 C 1.863281 184.449219 1.9375 181.414062 2.085938 178.378906 C 2.234375 175.34375 2.457031 172.316406 2.757812 169.292969 C 3.054688 166.269531 3.425781 163.253906 3.871094 160.25 C 4.316406 157.246094 4.835938 154.253906 5.429688 151.273438 C 6.023438 148.292969 6.6875 145.332031 7.425781 142.382812 C 8.164062 139.4375 8.972656 136.511719 9.855469 133.601562 C 10.738281 130.695312 11.691406 127.8125 12.714844 124.953125 C 13.738281 122.09375 14.828125 119.257812 15.992188 116.453125 C 17.15625 113.644531 18.386719 110.867188 19.683594 108.121094 C 20.984375 105.375 22.347656 102.664062 23.78125 99.984375 C 25.210938 97.304688 26.710938 94.664062 28.269531 92.058594 C 29.832031 89.453125 31.457031 86.886719 33.144531 84.359375 C 34.832031 81.832031 36.582031 79.351562 38.390625 76.910156 C 40.203125 74.46875 42.070312 72.078125 43.996094 69.726562 C 45.925781 67.378906 47.90625 65.082031 49.949219 62.828125 C 51.988281 60.578125 54.082031 58.378906 56.230469 56.230469 C 58.378906 54.082031 60.578125 51.988281 62.828125 49.949219 C 65.078125 47.90625 67.378906 45.925781 69.726562 43.996094 C 72.078125 42.070312 74.46875 40.203125 76.910156 38.390625 C 79.351562 36.582031 81.832031 34.832031 84.359375 33.144531 C 86.886719 31.457031 89.453125 29.832031 92.058594 28.269531 C 94.664062 26.710938 97.304688 25.210938 99.984375 23.78125 C 102.664062 22.347656 105.375 20.984375 108.121094 19.683594 C 110.867188 18.386719 113.644531 17.15625 116.453125 15.992188 C 119.257812 14.828125 122.089844 13.738281 124.953125 12.714844 C 127.8125 11.691406 130.695312 10.738281 133.601562 9.855469 C 136.511719 8.972656 139.4375 8.164062 142.382812 7.425781 C 145.332031 6.6875 148.292969 6.023438 151.273438 5.429688 C 154.253906 4.835938 157.246094 4.316406 160.25 3.871094 C 163.253906 3.425781 166.269531 3.054688 169.292969 2.757812 C 172.316406 2.457031 175.34375 2.234375 178.378906 2.085938 C 181.414062 1.9375 184.449219 1.863281 187.488281 1.863281 C 190.523438 1.863281 193.5625 1.9375 196.59375 2.085938 C 199.628906 2.234375 202.660156 2.457031 205.683594 2.757812 C 208.703125 3.054688 211.71875 3.425781 214.722656 3.871094 C 217.730469 4.316406 220.722656 4.835938 223.699219 5.429688 C 226.679688 6.023438 229.644531 6.6875 232.589844 7.425781 C 235.539062 8.164062 238.464844 8.972656 241.371094 9.855469 C 244.277344 10.738281 247.160156 11.691406 250.023438 12.714844 C 252.882812 13.738281 255.714844 14.828125 258.523438 15.992188 C 261.328125 17.15625 264.105469 18.386719 266.851562 19.683594 C 269.597656 20.984375 272.3125 22.347656 274.992188 23.78125 C 277.667969 25.210938 280.3125 26.710938 282.917969 28.269531 C 285.523438 29.832031 288.089844 31.457031 290.613281 33.144531 C 293.140625 34.832031 295.625 36.582031 298.0625 38.390625 C 300.503906 40.203125 302.898438 42.070312 305.246094 43.996094 C 307.59375 45.925781 309.894531 47.90625 312.144531 49.949219 C 314.394531 51.988281 316.597656 54.082031 318.742188 56.230469 C 320.890625 58.378906 322.984375 60.578125 325.027344 62.828125 C 327.066406 65.082031 329.050781 67.378906 330.976562 69.726562 C 332.90625 72.078125 334.773438 74.46875 336.582031 76.910156 C 338.390625 79.351562 340.140625 81.832031 341.828125 84.359375 C 343.515625 86.886719 345.140625 89.453125 346.703125 92.058594 C 348.265625 94.664062 349.761719 97.304688 351.195312 99.984375 C 352.625 102.664062 353.992188 105.375 355.289062 108.121094 C 356.589844 110.867188 357.820312 113.644531 358.980469 116.453125 C 360.144531 119.257812 361.238281 122.089844 362.261719 124.953125 C 363.285156 127.8125 364.238281 130.695312 365.121094 133.601562 C 366 136.511719 366.8125 139.4375 367.550781 142.382812 C 368.289062 145.332031 368.953125 148.292969 369.546875 151.273438 C 370.136719 154.253906 370.65625 157.246094 371.101562 160.25 C 371.550781 163.253906 371.921875 166.269531 372.21875 169.292969 C 372.515625 172.316406 372.738281 175.34375 372.886719 178.378906 C 373.039062 181.414062 373.113281 184.449219 373.113281 187.488281 Z M 373.113281 187.488281 " fill-opacity="1" fill-rule="nonzero"/></g><path fill="#662113" d="M 218.214844 312.902344 C 218.214844 329.65625 204.628906 335.65625 187.867188 335.65625 C 171.105469 335.65625 157.515625 329.65625 157.515625 312.902344 L 165.101562 244.640625 C 165.101562 227.894531 171.105469 229.472656 187.867188 229.472656 C 204.628906 229.472656 210.628906 227.894531 210.628906 244.640625 Z M 218.214844 312.902344 " fill-opacity="1" fill-rule="nonzero"/><path fill="#5c913b" d="M 289.578125 269.652344 C 236.75 224.414062 215.355469 159.644531 187.867188 159.644531 C 160.378906 159.644531 138.980469 224.421875 86.152344 269.652344 C 63.953125 288.664062 74.527344 299.664062 104.964844 297.457031 C 132.089844 295.5 157.464844 289.351562 187.867188 289.351562 C 218.265625 289.351562 243.648438 295.5 270.761719 297.457031 C 301.203125 299.664062 311.769531 288.65625 289.578125 269.652344 Z M 289.578125 269.652344 " fill-opacity="1" fill-rule="nonzero"/><path fill="#3e721d" d="M 272.421875 251.722656 C 231.824219 214.515625 209.007812 161.222656 187.867188 161.222656 C 166.738281 161.222656 143.917969 214.515625 103.316406 251.722656 C 71.054688 281.289062 145.597656 287.925781 187.867188 251.722656 C 230.117188 287.933594 304.679688 281.289062 272.421875 251.722656 Z M 272.421875 251.722656 " fill-opacity="1" fill-rule="nonzero"/><path fill="#5c913b" d="M 272.421875 221.578125 C 231.824219 186.820312 209.007812 137.035156 187.867188 137.035156 C 166.738281 137.035156 143.917969 186.820312 103.316406 221.578125 C 71.054688 249.199219 145.597656 255.398438 187.867188 221.578125 C 230.117188 255.40625 304.679688 249.199219 272.421875 221.578125 Z M 272.421875 221.578125 " fill-opacity="1" fill-rule="nonzero"/><path fill="#3e721d" d="M 253.871094 196.894531 C 222.1875 169.753906 204.375 130.882812 187.867188 130.882812 C 171.371094 130.882812 153.554688 169.746094 121.859375 196.894531 C 96.679688 218.457031 154.863281 223.296875 187.867188 196.894531 C 220.851562 223.289062 279.0625 218.457031 253.871094 196.894531 Z M 253.871094 196.894531 " fill-opacity="1" fill-rule="nonzero"/><path fill="#5c913b" d="M 253.871094 174.308594 C 222.1875 147.167969 204.375 108.308594 187.867188 108.308594 C 171.371094 108.308594 153.554688 147.167969 121.859375 174.308594 C 96.679688 195.878906 154.863281 200.710938 187.867188 174.308594 C 220.851562 200.710938 279.0625 195.878906 253.871094 174.308594 Z M 253.871094 174.308594 " fill-opacity="1" fill-rule="nonzero"/><path fill="#3e721d" d="M 241.132812 154.25 C 215.554688 132.351562 201.179688 100.984375 187.855469 100.984375 C 174.546875 100.984375 160.167969 132.351562 134.582031 154.25 C 114.253906 171.660156 161.226562 175.558594 187.855469 154.25 C 214.5 175.558594 261.46875 171.660156 241.132812 154.25 Z M 241.132812 154.25 " fill-opacity="1" fill-rule="nonzero"/><path fill="#5c913b" d="M 241.132812 137.25 C 215.554688 115.355469 201.179688 83.984375 187.855469 83.984375 C 174.546875 83.984375 160.167969 115.355469 134.582031 137.25 C 114.253906 154.660156 161.226562 158.5625 187.855469 137.25 C 214.5 158.5625 261.46875 154.660156 241.132812 137.25 Z M 241.132812 137.25 " fill-opacity="1" fill-rule="nonzero"/><path fill="#3e721d" d="M 228.398438 112.226562 C 208.941406 95.5625 198.003906 71.695312 187.867188 71.695312 C 177.734375 71.695312 166.789062 95.5625 147.324219 112.226562 C 131.855469 125.472656 167.59375 128.441406 187.867188 112.226562 C 208.128906 128.441406 243.875 125.472656 228.398438 112.226562 Z M 228.398438 112.226562 " fill-opacity="1" fill-rule="nonzero"/><path fill="#5c913b" d="M 228.398438 103.171875 C 208.941406 86.5 198.003906 62.632812 187.867188 62.632812 C 177.734375 62.632812 166.789062 86.5 147.324219 103.171875 C 131.855469 116.417969 167.59375 119.390625 187.867188 103.171875 C 208.128906 119.382812 243.875 116.410156 228.398438 103.171875 Z M 228.398438 103.171875 " fill-opacity="1" fill-rule="nonzero"/><path fill="#ffcc4d" d="M 183.902344 138.492188 C 183.902344 139.320312 183.824219 140.136719 183.664062 140.949219 C 183.5 141.757812 183.261719 142.546875 182.945312 143.308594 C 182.628906 144.074219 182.242188 144.796875 181.78125 145.484375 C 181.324219 146.171875 180.800781 146.808594 180.214844 147.390625 C 179.632812 147.976562 178.996094 148.5 178.308594 148.957031 C 177.621094 149.417969 176.894531 149.804688 176.132812 150.121094 C 175.367188 150.4375 174.582031 150.675781 173.769531 150.835938 C 172.960938 150.996094 172.140625 151.078125 171.3125 151.078125 C 170.488281 151.078125 169.667969 150.996094 168.859375 150.835938 C 168.046875 150.675781 167.257812 150.4375 166.496094 150.121094 C 165.730469 149.804688 165.007812 149.417969 164.320312 148.957031 C 163.632812 148.5 162.996094 147.976562 162.410156 147.390625 C 161.828125 146.808594 161.304688 146.171875 160.84375 145.484375 C 160.386719 144.796875 160 144.074219 159.683594 143.308594 C 159.367188 142.546875 159.125 141.757812 158.964844 140.949219 C 158.804688 140.136719 158.722656 139.320312 158.722656 138.492188 C 158.722656 137.667969 158.804688 136.847656 158.964844 136.039062 C 159.125 135.226562 159.367188 134.441406 159.683594 133.675781 C 160 132.914062 160.386719 132.1875 160.84375 131.5 C 161.304688 130.816406 161.828125 130.179688 162.410156 129.59375 C 162.996094 129.011719 163.632812 128.488281 164.320312 128.03125 C 165.007812 127.570312 165.730469 127.183594 166.496094 126.867188 C 167.257812 126.550781 168.046875 126.3125 168.859375 126.152344 C 169.667969 125.988281 170.488281 125.910156 171.3125 125.910156 C 172.140625 125.910156 172.960938 125.988281 173.769531 126.152344 C 174.582031 126.3125 175.367188 126.550781 176.132812 126.867188 C 176.894531 127.183594 177.621094 127.570312 178.308594 128.03125 C 178.996094 128.488281 179.632812 129.011719 180.214844 129.59375 C 180.800781 130.179688 181.324219 130.816406 181.78125 131.5 C 182.242188 132.1875 182.628906 132.914062 182.945312 133.675781 C 183.261719 134.441406 183.5 135.226562 183.664062 136.039062 C 183.824219 136.847656 183.902344 137.667969 183.902344 138.492188 Z M 183.902344 138.492188 " fill-opacity="1" fill-rule="nonzero"/><path fill="#ffcc4d" d="M 217.476562 247.207031 C 217.476562 247.757812 217.449219 248.308594 217.398438 248.855469 C 217.34375 249.402344 217.261719 249.945312 217.15625 250.484375 C 217.046875 251.019531 216.914062 251.554688 216.753906 252.078125 C 216.59375 252.605469 216.410156 253.121094 216.199219 253.628906 C 215.988281 254.136719 215.753906 254.632812 215.496094 255.117188 C 215.238281 255.601562 214.953125 256.074219 214.648438 256.53125 C 214.34375 256.988281 214.015625 257.429688 213.667969 257.855469 C 213.320312 258.277344 212.949219 258.683594 212.5625 259.074219 C 212.171875 259.460938 211.765625 259.832031 211.339844 260.179688 C 210.914062 260.527344 210.472656 260.855469 210.015625 261.160156 C 209.558594 261.464844 209.089844 261.75 208.605469 262.007812 C 208.121094 262.265625 207.625 262.5 207.113281 262.710938 C 206.605469 262.921875 206.089844 263.105469 205.5625 263.265625 C 205.039062 263.425781 204.503906 263.558594 203.964844 263.667969 C 203.425781 263.773438 202.882812 263.855469 202.335938 263.90625 C 201.789062 263.960938 201.242188 263.988281 200.691406 263.988281 C 200.140625 263.988281 199.59375 263.960938 199.046875 263.90625 C 198.5 263.855469 197.957031 263.773438 197.417969 263.667969 C 196.875 263.558594 196.34375 263.425781 195.816406 263.265625 C 195.292969 263.105469 194.773438 262.921875 194.265625 262.710938 C 193.757812 262.5 193.261719 262.265625 192.777344 262.007812 C 192.292969 261.75 191.820312 261.464844 191.363281 261.160156 C 190.90625 260.855469 190.464844 260.527344 190.042969 260.179688 C 189.617188 259.832031 189.210938 259.460938 188.820312 259.074219 C 188.433594 258.683594 188.0625 258.277344 187.714844 257.855469 C 187.367188 257.429688 187.039062 256.988281 186.734375 256.53125 C 186.425781 256.074219 186.144531 255.601562 185.886719 255.117188 C 185.628906 254.632812 185.390625 254.136719 185.183594 253.628906 C 184.972656 253.121094 184.785156 252.605469 184.625 252.078125 C 184.46875 251.554688 184.332031 251.019531 184.226562 250.484375 C 184.121094 249.945312 184.039062 249.402344 183.984375 248.855469 C 183.929688 248.308594 183.902344 247.757812 183.902344 247.207031 C 183.902344 246.660156 183.929688 246.109375 183.984375 245.5625 C 184.039062 245.015625 184.121094 244.472656 184.226562 243.933594 C 184.332031 243.394531 184.46875 242.863281 184.625 242.339844 C 184.785156 241.8125 184.972656 241.296875 185.183594 240.789062 C 185.390625 240.28125 185.628906 239.785156 185.886719 239.300781 C 186.144531 238.8125 186.425781 238.34375 186.734375 237.886719 C 187.039062 237.429688 187.367188 236.988281 187.714844 236.5625 C 188.0625 236.140625 188.433594 235.734375 188.820312 235.34375 C 189.210938 234.957031 189.617188 234.585938 190.042969 234.238281 C 190.464844 233.890625 190.90625 233.5625 191.363281 233.257812 C 191.820312 232.953125 192.292969 232.667969 192.777344 232.410156 C 193.261719 232.152344 193.757812 231.917969 194.265625 231.707031 C 194.773438 231.496094 195.292969 231.3125 195.816406 231.152344 C 196.34375 230.992188 196.875 230.859375 197.417969 230.75 C 197.957031 230.644531 198.5 230.5625 199.046875 230.511719 C 199.59375 230.457031 200.140625 230.429688 200.691406 230.429688 C 201.242188 230.429688 201.789062 230.457031 202.335938 230.511719 C 202.882812 230.5625 203.425781 230.644531 203.964844 230.75 C 204.503906 230.859375 205.039062 230.992188 205.5625 231.152344 C 206.089844 231.3125 206.605469 231.496094 207.113281 231.707031 C 207.625 231.917969 208.121094 232.152344 208.605469 232.410156 C 209.089844 232.667969 209.558594 232.953125 210.015625 233.257812 C 210.472656 233.5625 210.914062 233.890625 211.339844 234.238281 C 211.765625 234.585938 212.171875 234.957031 212.5625 235.34375 C 212.949219 235.734375 213.320312 236.140625 213.667969 236.5625 C 214.015625 236.988281 214.34375 237.429688 214.648438 237.886719 C 214.953125 238.34375 215.238281 238.8125 215.496094 239.300781 C 215.753906 239.785156 215.988281 240.28125 216.199219 240.789062 C 216.410156 241.296875 216.59375 241.8125 216.753906 242.339844 C 216.914062 242.863281 217.046875 243.394531 217.15625 243.933594 C 217.261719 244.472656 217.34375 245.015625 217.398438 245.5625 C 217.449219 246.109375 217.476562 246.660156 217.476562 247.207031 Z M 217.476562 247.207031 " fill-opacity="1" fill-rule="nonzero"/><path fill="#dd2e44" d="M 242.660156 167.503906 C 242.660156 168.191406 242.625 168.878906 242.558594 169.5625 C 242.488281 170.246094 242.390625 170.921875 242.253906 171.597656 C 242.121094 172.269531 241.953125 172.9375 241.753906 173.59375 C 241.554688 174.25 241.324219 174.898438 241.0625 175.53125 C 240.796875 176.167969 240.503906 176.785156 240.179688 177.394531 C 239.855469 178 239.503906 178.585938 239.121094 179.160156 C 238.742188 179.730469 238.332031 180.28125 237.894531 180.8125 C 237.460938 181.34375 237 181.851562 236.511719 182.335938 C 236.027344 182.824219 235.519531 183.285156 234.988281 183.71875 C 234.457031 184.15625 233.902344 184.5625 233.332031 184.945312 C 232.761719 185.328125 232.171875 185.679688 231.566406 186.003906 C 230.960938 186.328125 230.339844 186.621094 229.703125 186.882812 C 229.070312 187.144531 228.421875 187.378906 227.765625 187.578125 C 227.109375 187.777344 226.441406 187.941406 225.769531 188.078125 C 225.09375 188.210938 224.414062 188.3125 223.730469 188.378906 C 223.046875 188.445312 222.363281 188.480469 221.675781 188.480469 C 220.988281 188.480469 220.300781 188.445312 219.617188 188.378906 C 218.933594 188.3125 218.253906 188.210938 217.582031 188.078125 C 216.90625 187.941406 216.242188 187.777344 215.582031 187.578125 C 214.925781 187.378906 214.28125 187.144531 213.644531 186.882812 C 213.007812 186.621094 212.390625 186.328125 211.78125 186.003906 C 211.175781 185.679688 210.589844 185.328125 210.015625 184.945312 C 209.445312 184.5625 208.894531 184.15625 208.363281 183.71875 C 207.832031 183.285156 207.324219 182.824219 206.835938 182.335938 C 206.351562 181.851562 205.890625 181.34375 205.453125 180.8125 C 205.019531 180.28125 204.609375 179.730469 204.226562 179.160156 C 203.84375 178.585938 203.492188 178 203.167969 177.394531 C 202.84375 176.785156 202.550781 176.167969 202.289062 175.53125 C 202.023438 174.898438 201.792969 174.25 201.59375 173.59375 C 201.394531 172.9375 201.226562 172.269531 201.09375 171.597656 C 200.960938 170.921875 200.859375 170.246094 200.792969 169.5625 C 200.726562 168.878906 200.691406 168.191406 200.691406 167.503906 C 200.691406 166.820312 200.726562 166.132812 200.792969 165.449219 C 200.859375 164.765625 200.960938 164.085938 201.09375 163.414062 C 201.226562 162.738281 201.394531 162.074219 201.59375 161.417969 C 201.792969 160.757812 202.023438 160.113281 202.289062 159.480469 C 202.550781 158.84375 202.84375 158.222656 203.167969 157.617188 C 203.492188 157.011719 203.84375 156.425781 204.226562 155.851562 C 204.609375 155.28125 205.019531 154.730469 205.453125 154.199219 C 205.890625 153.667969 206.351562 153.160156 206.835938 152.675781 C 207.324219 152.1875 207.832031 151.726562 208.363281 151.292969 C 208.894531 150.855469 209.445312 150.449219 210.015625 150.066406 C 210.589844 149.683594 211.175781 149.332031 211.78125 149.007812 C 212.390625 148.683594 213.007812 148.390625 213.644531 148.128906 C 214.28125 147.863281 214.925781 147.632812 215.582031 147.433594 C 216.242188 147.234375 216.90625 147.066406 217.582031 146.933594 C 218.253906 146.800781 218.933594 146.699219 219.617188 146.632812 C 220.300781 146.566406 220.988281 146.53125 221.675781 146.53125 C 222.363281 146.53125 223.046875 146.566406 223.730469 146.632812 C 224.414062 146.699219 225.09375 146.800781 225.769531 146.933594 C 226.441406 147.066406 227.109375 147.234375 227.765625 147.433594 C 228.421875 147.632812 229.070312 147.863281 229.703125 148.128906 C 230.339844 148.390625 230.960938 148.683594 231.566406 149.007812 C 232.171875 149.332031 232.761719 149.683594 233.332031 150.066406 C 233.902344 150.449219 234.457031 150.855469 234.988281 151.292969 C 235.519531 151.726562 236.027344 152.1875 236.511719 152.675781 C 237 153.160156 237.460938 153.667969 237.894531 154.199219 C 238.332031 154.730469 238.742188 155.28125 239.121094 155.851562 C 239.503906 156.425781 239.855469 157.011719 240.179688 157.617188 C 240.503906 158.222656 240.796875 158.84375 241.0625 159.480469 C 241.324219 160.113281 241.554688 160.757812 241.753906 161.417969 C 241.953125 162.074219 242.121094 162.738281 242.253906 163.414062 C 242.390625 164.085938 242.488281 164.765625 242.558594 165.449219 C 242.625 166.132812 242.660156 166.820312 242.660156 167.503906 Z M 242.660156 167.503906 " fill-opacity="1" fill-rule="nonzero"/><path fill="#dd2e44" d="M 133.542969 255.597656 C 133.542969 256.148438 133.515625 256.695312 133.460938 257.242188 C 133.410156 257.789062 133.328125 258.332031 133.21875 258.871094 C 133.113281 259.410156 132.980469 259.945312 132.820312 260.46875 C 132.660156 260.996094 132.476562 261.511719 132.265625 262.019531 C 132.054688 262.527344 131.820312 263.023438 131.5625 263.507812 C 131.300781 263.992188 131.019531 264.464844 130.714844 264.921875 C 130.410156 265.378906 130.082031 265.820312 129.734375 266.242188 C 129.382812 266.667969 129.015625 267.074219 128.625 267.464844 C 128.238281 267.851562 127.832031 268.222656 127.40625 268.570312 C 126.980469 268.917969 126.539062 269.246094 126.082031 269.550781 C 125.625 269.855469 125.152344 270.136719 124.667969 270.398438 C 124.183594 270.65625 123.6875 270.890625 123.179688 271.101562 C 122.671875 271.3125 122.15625 271.496094 121.628906 271.65625 C 121.101562 271.816406 120.570312 271.949219 120.03125 272.054688 C 119.492188 272.164062 118.949219 272.242188 118.402344 272.296875 C 117.855469 272.351562 117.304688 272.378906 116.757812 272.378906 C 116.207031 272.378906 115.65625 272.351562 115.109375 272.296875 C 114.5625 272.242188 114.019531 272.164062 113.480469 272.054688 C 112.941406 271.949219 112.410156 271.816406 111.882812 271.65625 C 111.355469 271.496094 110.839844 271.3125 110.332031 271.101562 C 109.824219 270.890625 109.328125 270.65625 108.84375 270.398438 C 108.359375 270.136719 107.886719 269.855469 107.429688 269.550781 C 106.972656 269.246094 106.53125 268.917969 106.105469 268.570312 C 105.679688 268.222656 105.273438 267.851562 104.886719 267.464844 C 104.496094 267.074219 104.128906 266.667969 103.78125 266.242188 C 103.429688 265.820312 103.101562 265.378906 102.796875 264.921875 C 102.492188 264.464844 102.210938 263.992188 101.949219 263.507812 C 101.691406 263.023438 101.457031 262.527344 101.246094 262.019531 C 101.035156 261.511719 100.851562 260.996094 100.691406 260.46875 C 100.53125 259.945312 100.398438 259.410156 100.292969 258.871094 C 100.183594 258.332031 100.105469 257.789062 100.050781 257.242188 C 99.996094 256.695312 99.96875 256.148438 99.96875 255.597656 C 99.96875 255.050781 99.996094 254.5 100.050781 253.953125 C 100.105469 253.40625 100.183594 252.863281 100.292969 252.324219 C 100.398438 251.785156 100.53125 251.253906 100.691406 250.726562 C 100.851562 250.203125 101.035156 249.683594 101.246094 249.175781 C 101.457031 248.667969 101.691406 248.171875 101.949219 247.6875 C 102.210938 247.203125 102.492188 246.734375 102.796875 246.277344 C 103.101562 245.820312 103.429688 245.378906 103.78125 244.953125 C 104.128906 244.527344 104.496094 244.121094 104.886719 243.734375 C 105.273438 243.34375 105.679688 242.976562 106.105469 242.628906 C 106.53125 242.277344 106.972656 241.953125 107.429688 241.648438 C 107.886719 241.339844 108.359375 241.058594 108.84375 240.800781 C 109.328125 240.542969 109.824219 240.308594 110.332031 240.097656 C 110.839844 239.886719 111.355469 239.699219 111.882812 239.542969 C 112.410156 239.382812 112.941406 239.25 113.480469 239.140625 C 114.019531 239.035156 114.5625 238.953125 115.109375 238.898438 C 115.65625 238.847656 116.207031 238.820312 116.757812 238.820312 C 117.304688 238.820312 117.855469 238.847656 118.402344 238.898438 C 118.949219 238.953125 119.492188 239.035156 120.03125 239.140625 C 120.570312 239.25 121.101562 239.382812 121.628906 239.542969 C 122.15625 239.699219 122.671875 239.886719 123.179688 240.097656 C 123.6875 240.308594 124.183594 240.542969 124.667969 240.800781 C 125.152344 241.058594 125.625 241.339844 126.082031 241.648438 C 126.539062 241.953125 126.980469 242.277344 127.40625 242.628906 C 127.832031 242.976562 128.238281 243.34375 128.625 243.734375 C 129.015625 244.121094 129.382812 244.527344 129.734375 244.953125 C 130.082031 245.378906 130.410156 245.820312 130.714844 246.277344 C 131.019531 246.734375 131.300781 247.203125 131.5625 247.6875 C 131.820312 248.171875 132.054688 248.667969 132.265625 249.175781 C 132.476562 249.683594 132.660156 250.203125 132.820312 250.726562 C 132.980469 251.253906 133.113281 251.785156 133.21875 252.324219 C 133.328125 252.863281 133.410156 253.40625 133.460938 253.953125 C 133.515625 254.5 133.542969 255.050781 133.542969 255.597656 Z M 133.542969 255.597656 " fill-opacity="1" fill-rule="nonzero"/><path fill="#a6d388" d="M 167.117188 196.871094 C 167.117188 197.417969 167.089844 197.96875 167.035156 198.515625 C 166.980469 199.0625 166.902344 199.605469 166.792969 200.144531 C 166.6875 200.683594 166.554688 201.214844 166.394531 201.742188 C 166.234375 202.265625 166.050781 202.785156 165.839844 203.292969 C 165.628906 203.800781 165.394531 204.296875 165.136719 204.78125 C 164.875 205.265625 164.59375 205.734375 164.289062 206.191406 C 163.984375 206.648438 163.65625 207.089844 163.304688 207.515625 C 162.957031 207.941406 162.589844 208.347656 162.199219 208.734375 C 161.8125 209.125 161.40625 209.492188 160.980469 209.839844 C 160.554688 210.1875 160.113281 210.515625 159.65625 210.820312 C 159.199219 211.128906 158.726562 211.410156 158.242188 211.667969 C 157.757812 211.925781 157.261719 212.160156 156.753906 212.371094 C 156.246094 212.582031 155.730469 212.765625 155.203125 212.925781 C 154.675781 213.085938 154.144531 213.21875 153.605469 213.328125 C 153.066406 213.433594 152.523438 213.515625 151.976562 213.570312 C 151.429688 213.621094 150.878906 213.648438 150.328125 213.648438 C 149.78125 213.648438 149.230469 213.621094 148.683594 213.570312 C 148.136719 213.515625 147.59375 213.433594 147.054688 213.328125 C 146.515625 213.21875 145.984375 213.085938 145.457031 212.925781 C 144.929688 212.765625 144.414062 212.582031 143.90625 212.371094 C 143.398438 212.160156 142.902344 211.925781 142.417969 211.667969 C 141.933594 211.410156 141.460938 211.128906 141.003906 210.820312 C 140.546875 210.515625 140.105469 210.1875 139.679688 209.839844 C 139.253906 209.492188 138.847656 209.125 138.460938 208.734375 C 138.070312 208.347656 137.703125 207.941406 137.351562 207.515625 C 137.003906 207.089844 136.675781 206.648438 136.371094 206.191406 C 136.066406 205.734375 135.785156 205.265625 135.523438 204.78125 C 135.265625 204.296875 135.03125 203.800781 134.820312 203.292969 C 134.609375 202.785156 134.425781 202.265625 134.265625 201.742188 C 134.105469 201.214844 133.972656 200.683594 133.867188 200.144531 C 133.757812 199.605469 133.675781 199.0625 133.625 198.515625 C 133.570312 197.96875 133.542969 197.417969 133.542969 196.871094 C 133.542969 196.320312 133.570312 195.773438 133.625 195.226562 C 133.675781 194.679688 133.757812 194.136719 133.867188 193.597656 C 133.972656 193.058594 134.105469 192.523438 134.265625 192 C 134.425781 191.472656 134.609375 190.957031 134.820312 190.449219 C 135.03125 189.941406 135.265625 189.445312 135.523438 188.960938 C 135.785156 188.476562 136.066406 188.003906 136.371094 187.546875 C 136.675781 187.089844 137.003906 186.648438 137.351562 186.226562 C 137.703125 185.800781 138.070312 185.394531 138.460938 185.003906 C 138.847656 184.617188 139.253906 184.246094 139.679688 183.898438 C 140.105469 183.550781 140.546875 183.222656 141.003906 182.917969 C 141.460938 182.613281 141.933594 182.332031 142.417969 182.070312 C 142.902344 181.8125 143.398438 181.578125 143.90625 181.367188 C 144.414062 181.15625 144.929688 180.972656 145.457031 180.8125 C 145.984375 180.652344 146.515625 180.519531 147.054688 180.414062 C 147.59375 180.304688 148.136719 180.226562 148.683594 180.171875 C 149.230469 180.117188 149.78125 180.089844 150.328125 180.089844 C 150.878906 180.089844 151.429688 180.117188 151.976562 180.171875 C 152.523438 180.226562 153.066406 180.304688 153.605469 180.414062 C 154.144531 180.519531 154.675781 180.652344 155.203125 180.8125 C 155.730469 180.972656 156.246094 181.15625 156.753906 181.367188 C 157.261719 181.578125 157.757812 181.8125 158.242188 182.070312 C 158.726562 182.332031 159.199219 182.613281 159.65625 182.917969 C 160.113281 183.222656 160.554688 183.550781 160.980469 183.898438 C 161.40625 184.246094 161.8125 184.617188 162.199219 185.003906 C 162.589844 185.394531 162.957031 185.800781 163.304688 186.226562 C 163.65625 186.648438 163.984375 187.089844 164.289062 187.546875 C 164.59375 188.003906 164.875 188.476562 165.136719 188.960938 C 165.394531 189.445312 165.628906 189.941406 165.839844 190.449219 C 166.050781 190.957031 166.234375 191.472656 166.394531 192 C 166.554688 192.523438 166.6875 193.058594 166.792969 193.597656 C 166.902344 194.136719 166.980469 194.679688 167.035156 195.226562 C 167.089844 195.773438 167.117188 196.320312 167.117188 196.871094 Z M 167.117188 196.871094 " fill-opacity="1" fill-rule="nonzero"/><path fill="#a6d388" d="M 267.839844 230.429688 C 267.839844 230.980469 267.8125 231.527344 267.757812 232.074219 C 267.703125 232.621094 267.625 233.164062 267.515625 233.703125 C 267.410156 234.242188 267.277344 234.773438 267.117188 235.300781 C 266.957031 235.824219 266.773438 236.34375 266.5625 236.851562 C 266.351562 237.359375 266.117188 237.855469 265.855469 238.339844 C 265.597656 238.824219 265.316406 239.292969 265.011719 239.75 C 264.703125 240.207031 264.378906 240.648438 264.027344 241.074219 C 263.679688 241.5 263.3125 241.90625 262.921875 242.292969 C 262.535156 242.683594 262.125 243.050781 261.703125 243.398438 C 261.277344 243.75 260.835938 244.074219 260.378906 244.382812 C 259.921875 244.6875 259.449219 244.96875 258.964844 245.226562 C 258.480469 245.488281 257.984375 245.722656 257.476562 245.929688 C 256.96875 246.140625 256.453125 246.328125 255.925781 246.488281 C 255.398438 246.644531 254.867188 246.777344 254.328125 246.886719 C 253.789062 246.992188 253.246094 247.074219 252.699219 247.128906 C 252.152344 247.183594 251.601562 247.207031 251.050781 247.207031 C 250.503906 247.207031 249.953125 247.183594 249.40625 247.128906 C 248.859375 247.074219 248.316406 246.992188 247.777344 246.886719 C 247.238281 246.777344 246.707031 246.644531 246.179688 246.488281 C 245.652344 246.328125 245.136719 246.140625 244.628906 245.929688 C 244.121094 245.722656 243.625 245.488281 243.140625 245.226562 C 242.652344 244.96875 242.183594 244.6875 241.726562 244.382812 C 241.269531 244.074219 240.828125 243.75 240.402344 243.398438 C 239.976562 243.050781 239.570312 242.683594 239.183594 242.292969 C 238.792969 241.90625 238.425781 241.5 238.074219 241.074219 C 237.726562 240.648438 237.398438 240.207031 237.09375 239.75 C 236.789062 239.292969 236.507812 238.824219 236.246094 238.339844 C 235.988281 237.855469 235.753906 237.359375 235.542969 236.851562 C 235.332031 236.34375 235.148438 235.824219 234.988281 235.300781 C 234.828125 234.773438 234.695312 234.242188 234.585938 233.703125 C 234.480469 233.164062 234.398438 232.621094 234.347656 232.074219 C 234.292969 231.527344 234.265625 230.980469 234.265625 230.429688 C 234.265625 229.878906 234.292969 229.332031 234.347656 228.785156 C 234.398438 228.238281 234.480469 227.695312 234.585938 227.15625 C 234.695312 226.617188 234.828125 226.085938 234.988281 225.558594 C 235.148438 225.03125 235.332031 224.515625 235.542969 224.007812 C 235.753906 223.5 235.988281 223.003906 236.246094 222.519531 C 236.507812 222.035156 236.789062 221.5625 237.09375 221.105469 C 237.398438 220.648438 237.726562 220.210938 238.074219 219.785156 C 238.425781 219.359375 238.792969 218.953125 239.183594 218.5625 C 239.570312 218.175781 239.976562 217.808594 240.402344 217.457031 C 240.828125 217.109375 241.269531 216.78125 241.726562 216.476562 C 242.183594 216.171875 242.652344 215.890625 243.140625 215.632812 C 243.625 215.371094 244.121094 215.136719 244.628906 214.925781 C 245.136719 214.714844 245.652344 214.53125 246.179688 214.371094 C 246.707031 214.210938 247.238281 214.078125 247.777344 213.972656 C 248.316406 213.863281 248.859375 213.785156 249.40625 213.730469 C 249.953125 213.675781 250.503906 213.648438 251.050781 213.648438 C 251.601562 213.648438 252.152344 213.675781 252.699219 213.730469 C 253.246094 213.785156 253.789062 213.863281 254.328125 213.972656 C 254.867188 214.078125 255.398438 214.210938 255.925781 214.371094 C 256.453125 214.53125 256.96875 214.714844 257.476562 214.925781 C 257.984375 215.136719 258.480469 215.371094 258.964844 215.632812 C 259.449219 215.890625 259.921875 216.171875 260.378906 216.476562 C 260.835938 216.78125 261.277344 217.109375 261.703125 217.457031 C 262.125 217.808594 262.535156 218.175781 262.921875 218.5625 C 263.3125 218.953125 263.679688 219.359375 264.027344 219.785156 C 264.378906 220.210938 264.703125 220.648438 265.011719 221.105469 C 265.316406 221.5625 265.597656 222.035156 265.855469 222.519531 C 266.117188 223.003906 266.351562 223.5 266.5625 224.007812 C 266.773438 224.515625 266.957031 225.03125 267.117188 225.558594 C 267.277344 226.085938 267.410156 226.617188 267.515625 227.15625 C 267.625 227.695312 267.703125 228.238281 267.757812 228.785156 C 267.8125 229.332031 267.839844 229.878906 267.839844 230.429688 Z M 267.839844 230.429688 " fill-opacity="1" fill-rule="nonzero"/><g clip-path="url(#6e9e02c32b)"><path fill="#ffac33" d="M 195.480469 51.550781 C 196.679688 53.855469 199.777344 56.15625 202.335938 56.660156 L 213.910156 58.914062 C 216.472656 59.417969 217.074219 61.347656 215.246094 63.210938 L 206.996094 71.636719 C 205.171875 73.496094 203.929688 77.148438 204.257812 79.730469 L 205.683594 91.425781 C 206.003906 94.019531 204.351562 95.183594 202.007812 94.027344 L 191.457031 88.785156 C 189.117188 87.625 185.265625 87.574219 182.898438 88.675781 L 172.203125 93.660156 C 169.835938 94.75 168.207031 93.539062 168.59375 90.957031 L 170.316406 79.292969 C 170.691406 76.71875 169.550781 73.042969 167.78125 71.132812 L 159.730469 62.515625 C 157.953125 60.609375 158.597656 58.679688 161.175781 58.253906 L 172.800781 56.289062 C 175.375 55.863281 178.515625 53.640625 179.78125 51.355469 L 185.5 41.046875 C 186.765625 38.761719 188.804688 38.789062 190.007812 41.097656 Z M 195.480469 51.550781 " fill-opacity="1" fill-rule="nonzero"/></g></svg>